<svg version="1.1" id="Layer_1" xmlns="http://www.w3.org/2000/svg" xmlns:xlink="http://www.w3.org/1999/xlink" x="0px" y="0px"
	 width="100%" viewBox="0 0 236 236" enable-background="new 0 0 236 236" xml:space="preserve">
<path fill="#FFFFFE" opacity="1.000000" stroke="none" 
	d="
M1.000000,94.000000 
	C1.000000,62.666672 1.000000,31.833344 1.000000,1.000012 
	C79.666649,1.000008 158.333298,1.000008 236.999954,1.000004 
	C236.999969,79.666634 236.999969,158.333267 236.999985,236.999908 
	C158.333374,236.999939 79.666763,236.999939 1.000072,236.999969 
	C1.000000,189.500000 1.000000,142.000000 1.000000,94.000000 
M197.084885,86.150406 
	C196.503647,85.056938 195.922424,83.963463 195.167297,82.287064 
	C195.085373,81.890099 195.003448,81.493126 194.913071,80.327805 
	C194.308228,78.454140 194.169800,76.206757 193.019043,74.770493 
	C187.591965,67.997032 182.388260,60.920189 176.138367,54.966091 
	C170.134506,49.246395 163.813477,43.308773 154.457047,42.028755 
	C154.457047,42.028755 154.042511,41.922676 153.895050,41.229958 
	C148.615845,39.331680 143.259232,37.620110 138.082977,35.473576 
	C134.232407,33.876789 131.203751,33.835217 129.007660,37.257500 
	C127.351242,34.141495 125.694817,31.025492 123.838028,27.270979 
	C122.360222,25.695528 121.075218,23.839073 119.335464,22.645401 
	C118.213127,21.875345 116.423912,22.077248 114.330849,22.151237 
	C111.197906,26.739178 108.064972,31.327118 104.585991,36.075119 
	C104.585991,36.075119 104.252441,36.259827 103.421745,36.136219 
	C99.101021,37.176479 94.632072,37.811108 90.485008,39.326591 
	C71.637718,46.214092 56.712662,58.161961 46.455353,75.431885 
	C41.658360,83.508438 37.176075,91.934456 36.311424,102.217247 
	C35.981358,103.805290 35.651295,105.393341 35.121929,107.836578 
	C35.071796,114.237572 35.021664,120.638557 34.599754,127.348679 
	C34.768394,127.871727 34.937035,128.394775 35.058167,129.754105 
	C35.198586,130.852859 35.339001,131.951599 35.315350,133.777328 
	C36.265324,136.817093 37.215294,139.856842 38.130001,143.627441 
	C38.254612,144.095764 38.379219,144.564102 38.344448,145.725922 
	C40.501163,149.943695 42.657883,154.161453 44.814194,158.946030 
	C44.905849,159.311707 44.997505,159.677399 45.124161,160.727371 
	C46.371449,162.229156 47.618736,163.730942 48.913586,165.646240 
	C48.913586,165.646240 49.069042,166.032364 49.108944,166.724701 
	C52.743057,171.430603 56.377171,176.136520 59.098015,180.940521 
	C56.766407,180.948166 54.420982,180.811432 52.109825,181.032684 
	C51.150658,181.124527 49.507843,181.929291 49.468613,182.498871 
	C49.218140,186.135498 48.680264,189.974533 49.611465,193.370010 
	C50.032631,194.905716 53.578556,195.647873 55.770859,196.603149 
	C56.645977,196.984482 57.693821,196.969406 59.059906,197.749344 
	C65.518997,200.784531 71.978088,203.819733 77.555847,206.924469 
	C74.820969,207.541992 71.858406,207.699234 69.415794,208.907578 
	C67.013039,210.096191 65.137802,212.351166 63.031090,214.138229 
	C65.066818,215.816406 66.884956,218.501175 69.176376,218.996536 
	C78.523544,221.017105 87.968369,223.256180 97.464996,223.759903 
	C112.168236,224.539825 126.965523,224.455307 141.679489,223.784470 
	C150.536118,223.380676 159.396149,221.545547 168.073639,219.561905 
	C170.976852,218.898239 173.319580,215.782837 175.918503,213.788132 
	C173.278412,212.133469 170.720428,210.324387 167.976486,208.864990 
	C164.864044,207.209610 161.585052,205.867340 159.018845,204.036316 
	C163.661865,201.974457 168.304871,199.912582 173.881363,197.727676 
	C174.464615,197.495636 175.047882,197.263611 175.492706,196.932281 
	C175.492706,196.932281 175.478531,196.963364 176.577591,196.818283 
	C177.267517,196.553207 177.957443,196.288132 178.505356,195.914749 
	C178.505356,195.914749 178.533585,195.938446 179.364517,195.897507 
	C183.650528,194.370667 184.710480,191.351517 184.170731,184.229156 
	C183.869308,180.251709 181.116150,181.128647 178.631500,180.315125 
	C180.406372,177.870422 182.181229,175.425705 184.447113,172.728119 
	C184.677521,172.240921 184.907928,171.753723 185.746780,171.055984 
	C186.166656,170.371826 186.586533,169.687653 187.000000,169.000000 
	C187.000000,169.000000 187.003815,169.005737 187.621765,168.725616 
	C189.123810,166.186234 190.625870,163.646866 192.114609,161.034546 
	C192.114609,161.034546 192.074936,161.097214 192.552444,160.900986 
	C192.700897,160.600677 192.849350,160.300369 193.076721,160.077133 
	C193.076721,160.077133 193.184555,160.100266 193.840225,159.913513 
	C197.212830,151.350983 200.699432,142.829956 203.846100,134.185196 
	C204.372040,132.740280 203.421997,130.758102 203.153244,128.241608 
	C203.209457,127.201965 203.265671,126.162331 204.022614,124.804222 
	C204.321518,120.149284 204.911362,115.486366 204.783981,110.843124 
	C204.728775,108.831535 203.195099,106.860512 202.210144,104.241875 
	C202.211578,103.815041 202.213028,103.388199 202.688293,102.416519 
	C202.129166,100.608635 201.570053,98.800758 200.881180,96.421906 
	C200.829971,96.035080 200.778748,95.648254 200.894608,94.474106 
	C199.652649,91.952927 198.410675,89.431747 197.116821,86.900604 
	C197.116821,86.900604 197.108276,86.848465 197.084885,86.150406 
z"/>
<path fill="#F9D678" opacity="1.000000" stroke="none" 
	d="
M194.921509,81.096153 
	C195.003448,81.493126 195.085373,81.890099 195.179962,82.912064 
	C195.831177,84.640862 196.469727,85.744667 197.108276,86.848465 
	C197.108276,86.848465 197.116821,86.900604 197.126221,87.282089 
	C198.332916,90.196198 199.530228,92.728813 200.727539,95.261429 
	C200.778748,95.648254 200.829971,96.035080 200.930695,97.115700 
	C201.391632,99.526787 201.803040,101.244072 202.214462,102.961365 
	C202.213028,103.388199 202.211578,103.815041 202.174118,104.987053 
	C202.532684,112.195717 202.927292,118.659203 203.321899,125.122688 
	C203.265671,126.162331 203.209457,127.201965 202.854767,128.881989 
	C201.929077,132.247147 201.487259,135.031158 200.639374,137.685455 
	C198.243561,145.185532 195.681259,152.632416 193.184555,160.100266 
	C193.184555,160.100266 193.076721,160.077133 192.813660,160.154572 
	C192.392044,160.520432 192.233490,160.808823 192.074936,161.097214 
	C192.074936,161.097214 192.114609,161.034546 191.753998,161.067490 
	C189.930176,163.735535 188.466995,166.370636 187.003815,169.005737 
	C187.003815,169.005737 187.000000,169.000000 186.663452,169.048065 
	C185.930695,169.819580 185.534515,170.543060 185.138336,171.266525 
	C184.907928,171.753723 184.677521,172.240921 183.855682,172.891342 
	C182.100082,173.942245 180.857773,174.745178 179.786240,175.733292 
	C176.427277,178.830795 172.817657,180.481461 167.943008,180.112488 
	C158.426910,179.392136 148.862534,179.240143 139.314224,179.053528 
	C136.094589,178.990601 134.912979,177.709564 134.904434,174.574188 
	C134.901138,173.366898 133.875656,172.162384 133.241455,170.546143 
	C133.142242,168.746262 133.117447,167.356827 133.373947,165.667511 
	C133.762817,156.724609 133.922195,148.081421 133.893967,139.438843 
	C133.891281,138.618500 132.713120,137.802002 132.043640,136.548737 
	C131.995636,134.076385 131.984711,132.039001 132.151154,129.912628 
	C132.188324,129.552490 132.048096,129.281357 131.862823,128.592575 
	C131.571899,126.541847 131.170319,124.915070 131.104004,123.274734 
	C130.355667,104.762878 129.677338,86.248207 128.930527,67.736290 
	C128.799271,64.482651 128.575012,61.284363 132.162781,59.147961 
	C133.391846,58.455006 134.287796,57.837826 135.482178,57.030087 
	C135.863342,56.384960 135.946091,55.930393 135.983063,55.125946 
	C135.975739,53.834507 136.014191,52.892948 136.014511,51.573662 
	C136.636017,47.619164 133.504730,48.964355 132.025696,47.722969 
	C132.491547,43.920933 132.962830,40.553226 133.556519,36.310883 
	C140.748215,38.280926 147.395355,40.101799 154.042511,41.922676 
	C154.042511,41.922676 154.457047,42.028755 154.764709,42.396420 
	C155.411789,43.109051 155.690582,43.572399 156.099442,43.781750 
	C168.005112,49.878082 178.368881,57.733746 185.866333,69.067688 
	C188.630051,73.245644 191.888641,77.096237 194.921509,81.096153 
z"/>
<path fill="#F9D677" opacity="1.000000" stroke="none" 
	d="
M38.503830,145.032425 
	C38.379219,144.564102 38.254612,144.095764 38.394920,142.998886 
	C39.522881,138.607391 38.700939,135.419449 35.479420,133.050354 
	C35.339001,131.951599 35.198586,130.852859 35.288200,129.192810 
	C35.335999,128.100876 35.153763,127.570213 34.971531,127.039551 
	C35.021664,120.638557 35.071796,114.237572 35.560638,107.308578 
	C36.287941,105.105385 36.576538,103.430199 36.865131,101.755005 
	C37.176075,91.934456 41.658360,83.508438 46.455353,75.431885 
	C56.712662,58.161961 71.637718,46.214092 90.485008,39.326591 
	C94.632072,37.811108 99.101021,37.176479 103.842827,36.627380 
	C104.728897,40.392448 105.193893,43.666359 105.578674,47.285027 
	C105.352074,47.814873 105.205688,47.999958 104.655533,48.211082 
	C102.442200,48.407639 100.632660,48.578156 98.456993,48.894135 
	C94.307297,51.720173 96.506401,55.593407 96.160126,59.346443 
	C99.611214,60.409061 103.017349,61.075493 106.051514,61.669147 
	C106.051514,68.464096 106.051514,75.242424 106.040054,82.473465 
	C105.366302,91.162437 104.422348,99.387573 104.096596,107.637115 
	C103.252693,129.008133 102.640480,150.388718 102.024582,171.768051 
	C101.829109,178.553131 101.082283,179.754181 94.360046,179.934387 
	C85.218475,180.179443 76.065056,180.053619 66.917618,179.977936 
	C62.595219,179.942169 59.640881,177.645111 57.062347,174.212814 
	C54.791607,171.190231 51.762981,168.737015 49.069046,166.032364 
	C49.069042,166.032364 48.913586,165.646240 48.928185,165.055847 
	C47.658241,162.991333 46.373703,161.517197 45.089165,160.043076 
	C44.997505,159.677399 44.905849,159.311707 44.868637,158.254974 
	C42.783329,153.386749 40.643581,149.209595 38.503830,145.032425 
z"/>
<path fill="#F3CEC9" opacity="1.000000" stroke="none" 
	d="
M158.378479,204.388931 
	C161.585052,205.867340 164.864044,207.209610 167.976486,208.864990 
	C170.720428,210.324387 173.278412,212.133469 175.918503,213.788132 
	C173.319580,215.782837 170.976852,218.898239 168.073639,219.561905 
	C159.396149,221.545547 150.536118,223.380676 141.679489,223.784470 
	C126.965523,224.455307 112.168236,224.539825 97.464996,223.759903 
	C87.968369,223.256180 78.523544,221.017105 69.176376,218.996536 
	C66.884956,218.501175 65.066818,215.816406 63.031090,214.138229 
	C65.137802,212.351166 67.013039,210.096191 69.415794,208.907578 
	C71.858406,207.699234 74.820969,207.541992 78.249802,206.930206 
	C79.254669,207.076920 79.565590,207.217880 80.041435,207.640152 
	C83.103516,211.046402 86.000671,214.171341 88.912216,217.501099 
	C88.926605,217.705948 88.984802,218.112473 89.302086,218.381714 
	C107.190941,218.765594 124.762489,218.904129 142.334167,218.924393 
	C143.215179,218.925415 144.097382,217.902130 145.263580,217.146515 
	C149.824921,212.754471 154.101700,208.571701 158.378479,204.388931 
z"/>
<path fill="#302E4F" opacity="1.000000" stroke="none" 
	d="
M96.115173,58.950256 
	C96.506401,55.593407 94.307297,51.720173 98.756836,49.084480 
	C100.950989,49.165081 102.479179,49.200790 103.985443,49.494461 
	C103.690468,50.164749 103.417404,50.577076 102.792267,51.003899 
	C101.992912,51.685650 101.545639,52.352905 101.057281,53.339558 
	C100.965897,54.084244 100.915588,54.509537 100.578407,55.135075 
	C102.401131,55.882847 104.506653,56.875381 106.621056,56.894669 
	C113.030617,56.953133 119.443611,56.634758 125.984512,56.615620 
	C126.457230,56.661739 126.800705,56.555428 127.583221,56.423561 
	C130.366135,56.229839 132.709991,56.061668 135.038696,56.229950 
	C135.076950,56.784477 135.130356,57.002560 135.183762,57.220650 
	C134.287796,57.837826 133.391846,58.455006 131.775497,59.116550 
	C129.202499,59.607182 127.349892,60.053440 125.243614,60.560802 
	C125.895096,75.454094 126.622383,90.395630 127.163048,105.343918 
	C127.355003,110.651222 126.810089,115.990356 127.098793,121.287865 
	C127.652527,131.448517 128.722336,141.581070 129.274246,151.741776 
	C129.739365,160.304352 129.666519,168.896072 130.126160,177.459091 
	C130.188568,178.621857 131.963760,179.692688 133.215149,180.865234 
	C133.659485,180.980301 133.834564,181.036240 134.315338,181.373505 
	C148.310089,181.734634 161.999146,181.820999 175.688309,181.863129 
	C176.108368,181.864426 176.529831,181.406158 177.263779,181.112488 
	C177.987305,180.992050 178.397690,180.921249 178.808075,180.850449 
	C181.116150,181.128647 183.869308,180.251709 184.170731,184.229156 
	C184.710480,191.351517 183.650528,194.370667 178.951874,195.946793 
	C178.539215,195.996078 178.647369,196.023041 178.647369,196.023041 
	C177.957443,196.288132 177.267517,196.553207 176.043365,196.916443 
	C175.509125,197.014618 175.631134,197.031586 175.631134,197.031586 
	C175.047882,197.263611 174.464615,197.495636 173.216843,197.547806 
	C171.960556,196.804550 171.368774,196.241150 170.621826,195.517929 
	C170.210098,195.179047 170.046402,194.937149 169.973785,194.299911 
	C169.982468,193.301178 169.992859,192.634964 170.328964,191.863770 
	C171.100082,191.828232 171.545486,191.897675 172.214508,192.246857 
	C173.961304,192.339874 175.484512,192.153168 177.405304,191.855972 
	C184.115509,191.184128 179.596191,186.906311 181.058777,184.123383 
	C178.518723,184.123383 176.710938,184.128265 174.903168,184.122620 
	C152.932159,184.054016 130.961151,183.983871 108.994263,183.563629 
	C109.013725,182.512589 109.029060,181.812027 109.506157,181.049210 
	C115.557182,180.986954 121.146454,180.986954 127.362068,180.986954 
	C125.555809,140.279053 123.778435,100.222084 121.999260,60.124519 
	C119.179436,60.124519 117.025787,60.124519 114.503883,60.061775 
	C113.377434,59.997814 112.619240,59.996605 111.546936,59.991550 
	C110.129578,60.039871 109.026337,60.092037 107.476639,60.096352 
	C103.391838,59.682419 99.753510,59.316338 96.115173,58.950256 
z"/>
<path fill="#2D2E4E" opacity="1.000000" stroke="none" 
	d="
M103.144341,50.989403 
	C103.417404,50.577076 103.690468,50.164749 104.214569,49.375298 
	C104.663513,48.727127 104.861412,48.456081 105.059311,48.185040 
	C105.205688,47.999958 105.352074,47.814873 105.947144,47.290619 
	C107.106659,46.787437 107.817497,46.623425 108.511711,46.542038 
	C108.495094,46.624660 108.365784,46.732761 108.327866,46.991875 
	C108.517235,47.499973 108.744514,47.748955 109.206268,48.230755 
	C110.684341,48.198235 111.927933,47.932896 112.562263,47.797554 
	C111.743851,42.864079 111.067734,38.788380 110.341064,34.407940 
	C109.427406,34.994698 108.641518,35.499397 107.489647,36.001831 
	C106.393120,35.971394 105.662575,35.943226 104.932030,35.915058 
	C108.064972,31.327118 111.197906,26.739178 114.833969,22.285843 
	C116.201073,23.351414 117.065056,24.282381 117.585007,25.273367 
	C112.633186,33.121719 112.765266,40.633202 117.613838,46.538013 
	C120.401184,49.932587 123.349609,49.556351 124.922295,45.620846 
	C125.277367,44.732323 125.719666,43.878654 126.385254,43.146057 
	C127.120270,43.901936 127.591843,44.520702 128.051178,45.492081 
	C127.059738,48.026566 127.495575,49.002365 130.362305,48.280823 
	C131.137222,48.302990 131.584167,48.230137 132.031128,48.157288 
	C133.504730,48.964355 136.636017,47.619164 135.609421,51.728558 
	C133.838394,52.079781 132.434311,51.898380 130.870422,51.526146 
	C130.130829,51.456573 129.551056,51.577831 128.507187,51.742477 
	C122.368622,51.749336 116.694145,51.712814 110.782333,51.467400 
	C109.355988,51.403366 108.166969,51.548218 106.591507,51.746056 
	C105.166023,51.779415 104.126984,51.759792 103.103348,51.552578 
	C103.118744,51.364983 103.144341,50.989403 103.144341,50.989403 
z"/>
<path fill="#DCC78E" opacity="1.000000" stroke="none" 
	d="
M49.088997,166.378540 
	C51.762981,168.737015 54.791607,171.190231 57.062347,174.212814 
	C59.640881,177.645111 62.595219,179.942169 66.917618,179.977936 
	C76.065056,180.053619 85.218475,180.179443 94.360046,179.934387 
	C101.082283,179.754181 101.829109,178.553131 102.024582,171.768051 
	C102.640480,150.388718 103.252693,129.008133 104.096596,107.637115 
	C104.422348,99.387573 105.366302,91.162437 106.256973,82.466789 
	C106.485344,82.007393 106.920166,81.988701 106.991753,82.448959 
	C106.874260,87.220467 106.695526,91.532188 106.494286,95.842865 
	C105.713593,112.566063 104.925728,129.288940 104.086800,146.476410 
	C103.814919,153.961044 103.596779,160.981216 103.291962,168.416626 
	C103.213203,170.244095 103.221107,171.656311 103.136429,173.492828 
	C103.018791,175.940964 102.993721,177.964813 102.681541,180.296997 
	C100.438568,180.740005 98.483627,180.974686 96.526680,180.992966 
	C84.341003,181.106735 72.154869,181.172043 59.931496,181.145721 
	C59.894104,181.038010 60.011284,180.842422 60.011284,180.842422 
	C56.377171,176.136520 52.743057,171.430603 49.088997,166.378540 
z"/>
<path fill="#313153" opacity="1.000000" stroke="none" 
	d="
M58.663036,197.134781 
	C57.693821,196.969406 56.645977,196.984482 55.770859,196.603149 
	C53.578556,195.647873 50.032631,194.905716 49.611465,193.370010 
	C48.680264,189.974533 49.218140,186.135498 49.468613,182.498871 
	C49.507843,181.929291 51.150658,181.124527 52.109825,181.032684 
	C54.420982,180.811432 56.766407,180.948166 59.554649,180.891479 
	C60.011284,180.842422 59.894104,181.038010 59.939705,181.335358 
	C59.985310,181.632690 60.001221,182.011993 59.998909,182.330292 
	C59.999104,183.073105 60.001610,183.497650 59.554611,184.011932 
	C57.008858,184.101669 54.912605,184.101669 52.870731,184.101669 
	C52.870731,186.915253 52.870731,189.121155 52.870731,192.301758 
	C59.775822,192.301758 66.287987,192.301758 72.800156,192.301758 
	C72.805740,192.885086 72.811333,193.468430 72.816917,194.051758 
	C69.257576,194.625549 65.698235,195.199341 61.902184,196.084366 
	C60.664665,196.641998 59.663849,196.888382 58.663036,197.134781 
z"/>
<path fill="#363651" opacity="1.000000" stroke="none" 
	d="
M170.777008,195.677765 
	C171.368774,196.241150 171.960556,196.804550 172.750107,197.609314 
	C168.304871,199.912582 163.661865,201.974457 158.698669,204.212616 
	C154.101700,208.571701 149.824921,212.754471 144.888763,217.122314 
	C143.488464,217.214615 142.747559,217.121872 142.006714,216.682877 
	C141.998383,215.644531 141.989960,214.952408 142.295319,214.108368 
	C143.451950,213.176941 144.428802,212.500107 145.116806,211.601990 
	C151.667999,203.049866 160.811874,198.709259 170.777008,195.677765 
z"/>
<path fill="#FCF2CD" opacity="1.000000" stroke="none" 
	d="
M194.917297,80.711975 
	C191.888641,77.096237 188.630051,73.245644 185.866333,69.067688 
	C178.368881,57.733746 168.005112,49.878082 156.099442,43.781750 
	C155.690582,43.572399 155.411789,43.109051 154.975479,42.433186 
	C163.813477,43.308773 170.134506,49.246395 176.138367,54.966091 
	C182.388260,60.920189 187.591965,67.997032 193.019043,74.770493 
	C194.169800,76.206757 194.308228,78.454140 194.917297,80.711975 
z"/>
<path fill="#F3DA8D" opacity="1.000000" stroke="none" 
	d="
M134.009644,181.092163 
	C133.834564,181.036240 133.659485,180.980301 133.237183,180.423019 
	C133.098602,176.933304 133.207245,173.944962 133.315903,170.956604 
	C133.875656,172.162384 134.901138,173.366898 134.904434,174.574188 
	C134.912979,177.709564 136.094589,178.990601 139.314224,179.053528 
	C148.862534,179.240143 158.426910,179.392136 167.943008,180.112488 
	C172.817657,180.481461 176.427277,178.830795 179.786240,175.733292 
	C180.857773,174.745178 182.100082,173.942245 183.610168,173.017792 
	C182.181229,175.425705 180.406372,177.870422 178.719788,180.582794 
	C178.397690,180.921249 177.987305,180.992050 176.807678,181.018478 
	C162.028854,181.013458 148.019241,181.052811 134.009644,181.092163 
z"/>
<path fill="#373A53" opacity="1.000000" stroke="none" 
	d="
M58.861473,197.442062 
	C59.663849,196.888382 60.664665,196.641998 62.287952,196.104431 
	C69.046005,198.839050 75.181580,201.864838 81.001297,205.093750 
	C80.415787,205.984192 80.146149,206.671509 79.876511,207.358826 
	C79.565590,207.217880 79.254669,207.076920 78.690468,206.895447 
	C71.978088,203.819733 65.518997,200.784531 58.861473,197.442062 
z"/>
<path fill="#FCF2CD" opacity="1.000000" stroke="none" 
	d="
M132.025696,47.722965 
	C131.584167,48.230137 131.137222,48.302990 130.358017,47.860653 
	C129.011581,44.641758 133.588150,41.381737 129.126450,38.762909 
	C129.094070,38.342033 129.132004,38.172337 129.169922,38.002644 
	C131.203751,33.835217 134.232407,33.876789 138.082977,35.473576 
	C143.259232,37.620110 148.615845,39.331680 153.968781,41.576317 
	C147.395355,40.101799 140.748215,38.280926 133.556519,36.310883 
	C132.962830,40.553226 132.491547,43.920933 132.025696,47.722965 
z"/>
<path fill="#FCF2CD" opacity="1.000000" stroke="none" 
	d="
M193.512390,160.006897 
	C195.681259,152.632416 198.243561,145.185532 200.639374,137.685455 
	C201.487259,135.031158 201.929077,132.247147 202.855133,129.273270 
	C203.421997,130.758102 204.372040,132.740280 203.846100,134.185196 
	C200.699432,142.829956 197.212830,151.350983 193.512390,160.006897 
z"/>
<path fill="#383858" opacity="1.000000" stroke="none" 
	d="
M129.088791,37.630074 
	C129.132004,38.172337 129.094070,38.342033 129.076004,39.170242 
	C128.751709,41.598991 128.407562,43.369232 128.063416,45.139473 
	C127.591843,44.520702 127.120270,43.901936 126.349197,42.726799 
	C124.920998,38.354706 123.792305,34.538979 122.805588,30.357689 
	C123.311180,29.297915 123.674789,28.603703 124.038391,27.909489 
	C125.694817,31.025492 127.351242,34.141495 129.088791,37.630074 
z"/>
<path fill="#FCF2CD" opacity="1.000000" stroke="none" 
	d="
M203.672256,124.963455 
	C202.927292,118.659203 202.532684,112.195717 202.235535,105.301651 
	C203.195099,106.860512 204.728775,108.831535 204.783981,110.843124 
	C204.911362,115.486366 204.321518,120.149284 203.672256,124.963455 
z"/>
<path fill="#3C3538" opacity="1.000000" stroke="none" 
	d="
M104.759010,35.995087 
	C105.662575,35.943226 106.393120,35.971394 107.481064,36.385063 
	C108.068413,40.000183 108.298370,43.229801 108.528328,46.459419 
	C107.817497,46.623425 107.106659,46.787437 106.027359,46.945858 
	C105.193893,43.666359 104.728897,40.392448 104.258179,36.689186 
	C104.252441,36.259827 104.585991,36.075119 104.759010,35.995087 
z"/>
<path fill="#2F2F45" opacity="1.000000" stroke="none" 
	d="
M123.938210,27.590235 
	C123.674789,28.603703 123.311180,29.297915 122.542969,30.142027 
	C120.735260,28.599068 119.332153,26.906208 117.929039,25.213348 
	C117.065056,24.282381 116.201073,23.351414 115.135330,22.132004 
	C116.423912,22.077248 118.213127,21.875345 119.335464,22.645401 
	C121.075218,23.839073 122.360222,25.695528 123.938210,27.590235 
z"/>
<path fill="#DCC78E" opacity="1.000000" stroke="none" 
	d="
M38.424141,145.379181 
	C40.643581,149.209595 42.783329,153.386749 44.868843,157.971573 
	C42.657883,154.161453 40.501163,149.943695 38.424141,145.379181 
z"/>
<path fill="#DCC78E" opacity="1.000000" stroke="none" 
	d="
M35.397385,133.413849 
	C38.700939,135.419449 39.522881,138.607391 38.412556,142.633469 
	C37.215294,139.856842 36.265324,136.817093 35.397385,133.413849 
z"/>
<path fill="#F3DA8D" opacity="1.000000" stroke="none" 
	d="
M187.312790,168.865677 
	C188.466995,166.370636 189.930176,163.735535 191.760651,161.103973 
	C190.625870,163.646866 189.123810,166.186234 187.312790,168.865677 
z"/>
<path fill="#FCF2CD" opacity="1.000000" stroke="none" 
	d="
M200.811066,94.867767 
	C199.530228,92.728813 198.332916,90.196198 197.152161,87.287079 
	C198.410675,89.431747 199.652649,91.952927 200.811066,94.867767 
z"/>
<path fill="#DCC78E" opacity="1.000000" stroke="none" 
	d="
M45.106663,160.385223 
	C46.373703,161.517197 47.658241,162.991333 48.904404,164.849091 
	C47.618736,163.730942 46.371449,162.229156 45.106663,160.385223 
z"/>
<path fill="#FCF2CD" opacity="1.000000" stroke="none" 
	d="
M202.451385,102.688942 
	C201.803040,101.244072 201.391632,99.526787 200.995575,97.401184 
	C201.570053,98.800758 202.129166,100.608635 202.451385,102.688942 
z"/>
<path fill="#DCC78E" opacity="1.000000" stroke="none" 
	d="
M36.588280,101.986130 
	C36.576538,103.430199 36.287941,105.105385 35.660286,106.880981 
	C35.651295,105.393341 35.981358,103.805290 36.588280,101.986130 
z"/>
<path fill="#FCF2CD" opacity="1.000000" stroke="none" 
	d="
M197.096588,86.499435 
	C196.469727,85.744667 195.831177,84.640862 195.266907,83.203522 
	C195.922424,83.963463 196.503647,85.056938 197.096588,86.499435 
z"/>
<path fill="#F3DA8D" opacity="1.000000" stroke="none" 
	d="
M185.442566,171.161255 
	C185.534515,170.543060 185.930695,169.819580 186.666641,169.049805 
	C186.586533,169.687653 186.166656,170.371826 185.442566,171.161255 
z"/>
<path fill="#DCC78E" opacity="1.000000" stroke="none" 
	d="
M34.785645,127.194115 
	C35.153763,127.570213 35.335999,128.100876 35.311954,128.774689 
	C34.937035,128.394775 34.768394,127.871727 34.785645,127.194115 
z"/>
<path fill="#363651" opacity="1.000000" stroke="none" 
	d="
M175.561920,196.981934 
	C175.631134,197.031586 175.509125,197.014618 175.493835,196.988983 
	C175.478531,196.963364 175.492706,196.932281 175.561920,196.981934 
z"/>
<path fill="#363651" opacity="1.000000" stroke="none" 
	d="
M178.576355,195.968903 
	C178.647369,196.023041 178.539215,195.996078 178.536407,195.967255 
	C178.533585,195.938446 178.505356,195.914749 178.576355,195.968903 
z"/>
<path fill="#F3DA8D" opacity="1.000000" stroke="none" 
	d="
M192.313690,160.999100 
	C192.233490,160.808823 192.392044,160.520432 192.774200,160.116043 
	C192.849350,160.300369 192.700897,160.600677 192.313690,160.999100 
z"/>
<path fill="#F5F2EB" opacity="1.000000" stroke="none" 
	d="
M133.241455,170.546143 
	C133.207245,173.944962 133.098602,176.933304 132.967926,180.363861 
	C131.963760,179.692688 130.188568,178.621857 130.126160,177.459091 
	C129.666519,168.896072 129.739365,160.304352 129.274246,151.741776 
	C128.722336,141.581070 127.652527,131.448517 127.098793,121.287865 
	C126.810089,115.990356 127.355003,110.651222 127.163048,105.343918 
	C126.622383,90.395630 125.895096,75.454094 125.243614,60.560802 
	C127.349892,60.053440 129.202499,59.607182 131.442383,59.192329 
	C128.575012,61.284363 128.799271,64.482651 128.930527,67.736290 
	C129.677338,86.248207 130.355667,104.762878 131.104004,123.274734 
	C131.170319,124.915070 131.571899,126.541847 131.863266,128.841507 
	C131.908752,129.508087 131.973770,130.001617 131.973770,130.001617 
	C131.984711,132.039001 131.995636,134.076385 131.994110,137.016937 
	C131.997238,144.735367 131.920120,151.552750 132.076355,158.364807 
	C132.134628,160.905441 132.737900,163.433563 133.092651,165.967392 
	C133.117447,167.356827 133.142242,168.746262 133.241455,170.546143 
z"/>
<path fill="#F2F4F6" opacity="1.000000" stroke="none" 
	d="
M131.030243,51.716976 
	C132.434311,51.898380 133.838394,52.079781 135.647552,52.106285 
	C136.014191,52.892948 135.975739,53.834507 135.708984,55.159962 
	C135.338409,55.660408 135.196136,55.776955 135.053848,55.893501 
	C132.709991,56.061668 130.366135,56.229839 127.259682,56.312035 
	C126.283150,56.305099 126.069206,56.384148 125.855270,56.463192 
	C119.443611,56.634758 113.030617,56.953133 106.621056,56.894669 
	C104.506653,56.875381 102.401131,55.882847 100.871002,55.152020 
	C101.622215,54.257816 101.793976,53.546917 102.081650,52.592533 
	C102.494354,52.146091 102.791153,51.943134 103.087952,51.740173 
	C104.126984,51.759792 105.166023,51.779415 106.987686,51.851871 
	C108.853432,51.828568 109.936546,51.752430 111.019661,51.676289 
	C116.694145,51.712814 122.368622,51.749336 128.843185,51.857086 
	C130.105591,51.857868 130.567917,51.787422 131.030243,51.716976 
z"/>
<path fill="#F3DA8D" opacity="1.000000" stroke="none" 
	d="
M133.373962,165.667511 
	C132.737900,163.433563 132.134628,160.905441 132.076355,158.364807 
	C131.920120,151.552750 131.997238,144.735367 132.031189,137.451904 
	C132.713120,137.802002 133.891281,138.618500 133.893967,139.438843 
	C133.922195,148.081421 133.762817,156.724609 133.373962,165.667511 
z"/>
<path fill="#F3DA8D" opacity="1.000000" stroke="none" 
	d="
M132.151154,129.912628 
	C131.973770,130.001617 131.908752,129.508087 131.908325,129.259155 
	C132.048096,129.281357 132.188324,129.552490 132.151154,129.912628 
z"/>
<path fill="#7F7F9D" opacity="1.000000" stroke="none" 
	d="
M135.038696,56.229950 
	C135.196136,55.776955 135.338409,55.660408 135.754761,55.509842 
	C135.946091,55.930393 135.863342,56.384960 135.482178,57.030083 
	C135.130356,57.002560 135.076950,56.784477 135.038696,56.229950 
z"/>
<path fill="#EAD299" opacity="1.000000" stroke="none" 
	d="
M106.920166,81.988701 
	C106.920166,81.988701 106.485344,82.007393 106.268433,82.014069 
	C106.051514,75.242424 106.051514,68.464096 106.051514,61.669147 
	C103.017349,61.075493 99.611214,60.409061 96.160126,59.346443 
	C99.753510,59.316338 103.391838,59.682419 107.486542,60.550884 
	C107.602005,68.031746 107.261086,75.010223 106.920166,81.988701 
z"/>
<path fill="#5D5A6C" opacity="1.000000" stroke="none" 
	d="
M104.655533,48.211082 
	C104.861412,48.456081 104.663513,48.727127 104.236488,49.117340 
	C102.479179,49.200790 100.950989,49.165081 99.122955,48.939022 
	C100.632660,48.578156 102.442200,48.407639 104.655533,48.211082 
z"/>
<path fill="#F8D7D8" opacity="1.000000" stroke="none" 
	d="
M142.006653,217.029114 
	C142.747559,217.121872 143.488464,217.214615 144.604187,217.331573 
	C144.097382,217.902130 143.215179,218.925415 142.334167,218.924393 
	C124.762489,218.904129 107.190941,218.765594 89.715668,218.347382 
	C91.872032,217.756348 93.932091,217.468918 96.460541,217.210938 
	C110.289436,217.173874 123.649963,217.107346 137.327194,217.151550 
	C138.082230,217.211151 138.520554,217.160034 139.338928,217.166321 
	C140.481537,217.158875 141.244095,217.093994 142.006653,217.029114 
z"/>
<path fill="#443E58" opacity="1.000000" stroke="none" 
	d="
M80.041428,207.640152 
	C80.146149,206.671509 80.415787,205.984192 81.320236,205.217102 
	C83.918549,206.737076 85.793213,208.465164 87.869354,209.902161 
	C90.156929,211.485489 92.629547,212.801468 95.028580,214.498444 
	C95.036682,215.115631 95.037758,215.468277 94.635429,215.880783 
	C92.453949,216.392502 90.675880,216.844376 88.897820,217.296265 
	C86.000671,214.171341 83.103516,211.046402 80.041428,207.640152 
z"/>
<path fill="#B39AAA" opacity="1.000000" stroke="none" 
	d="
M88.912216,217.501099 
	C90.675880,216.844376 92.453949,216.392502 94.892883,216.030304 
	C95.699883,216.473831 95.846016,216.827652 95.992157,217.181488 
	C93.932091,217.468918 91.872032,217.756348 89.398384,218.078125 
	C88.984802,218.112473 88.926605,217.705948 88.912216,217.501099 
z"/>
<path fill="#F5F6F8" opacity="1.000000" stroke="none" 
	d="
M95.021545,214.233917 
	C92.629547,212.801468 90.156929,211.485489 87.869354,209.902161 
	C85.793213,208.465164 83.918549,206.737076 81.636108,205.013977 
	C75.181580,201.864838 69.046005,198.839050 62.524658,195.793198 
	C65.698235,195.199341 69.257576,194.625549 72.816917,194.051758 
	C72.811333,193.468430 72.805740,192.885086 72.800156,192.301758 
	C66.287987,192.301758 59.775822,192.301758 52.870731,192.301758 
	C52.870731,189.121155 52.870731,186.915253 52.870731,184.101669 
	C54.912605,184.101669 57.008858,184.101669 60.017708,184.087341 
	C73.626373,184.013458 86.322426,183.953888 99.463928,183.984222 
	C102.936295,184.020782 105.963211,183.967453 108.990135,183.914124 
	C130.961151,183.983871 152.932159,184.054016 174.903168,184.122620 
	C176.710938,184.128265 178.518723,184.123383 181.058777,184.123383 
	C179.596191,186.906311 184.115509,191.184128 176.993347,191.768677 
	C174.786179,191.850296 173.388535,191.908707 171.990906,191.967117 
	C171.545486,191.897675 171.100082,191.828232 169.933640,191.779724 
	C168.140900,191.858368 167.069168,191.916092 165.606033,191.869171 
	C164.143982,191.834213 163.073349,191.903900 161.555344,191.885193 
	C158.071045,191.855515 155.034119,191.914230 151.547516,191.863815 
	C147.398682,191.830093 143.699524,191.905518 139.578491,191.892517 
	C137.437637,191.862976 135.718643,191.921875 133.581268,191.871796 
	C131.442810,191.832825 129.722748,191.902802 127.551338,191.885178 
	C123.733185,191.858536 120.366379,191.919510 116.581696,191.872360 
	C114.444878,191.828491 112.725945,191.892746 110.572083,191.852539 
	C107.758720,191.827957 105.380272,191.907837 102.672318,191.894684 
	C101.894661,191.863144 101.446526,191.924652 100.550102,191.891647 
	C97.336609,191.782959 94.557823,191.616135 91.815605,191.860260 
	C91.116692,191.922455 90.533806,193.288071 90.094696,194.342407 
	C91.201553,194.651306 92.111320,194.672638 93.460266,194.751801 
	C96.258240,194.763153 98.617027,194.716660 101.312820,194.766327 
	C102.108017,194.798203 102.566208,194.733932 103.460434,194.748291 
	C106.256065,194.772995 108.615654,194.719101 111.330666,194.759369 
	C113.363663,194.789062 115.041229,194.724579 117.128105,194.738434 
	C121.015488,194.766129 124.493561,194.715454 128.396606,194.760849 
	C130.557358,194.791672 132.293152,194.726410 134.448441,194.739883 
	C136.571609,194.766129 138.275284,194.713638 140.432556,194.757965 
	C144.597855,194.789764 148.309555,194.724747 152.467743,194.738708 
	C155.933167,194.759048 158.952087,194.700394 162.366867,194.753052 
	C163.851364,194.798096 164.940033,194.731857 166.418091,194.749573 
	C167.863510,194.766495 168.919510,194.699463 169.975525,194.632431 
	C170.046402,194.937149 170.210098,195.179047 170.621826,195.517929 
	C160.811874,198.709259 151.667999,203.049866 145.116806,211.601990 
	C144.428802,212.500107 143.451950,213.176941 141.975464,214.026520 
	C140.904922,214.129654 140.468018,214.162704 139.651901,214.116241 
	C138.504593,214.094955 137.736481,214.153168 136.505035,214.153656 
	C128.691345,214.140991 121.341026,214.186081 113.531769,214.139282 
	C107.724121,214.108704 102.375397,214.170029 96.694527,214.167206 
	C95.915428,214.146667 95.468491,214.190292 95.021545,214.233917 
M77.542076,194.705933 
	C80.136147,194.590591 82.730217,194.475250 85.324280,194.359909 
	C81.167526,190.615417 77.857941,191.071106 77.542076,194.705933 
z"/>
<path fill="#F7F8F6" opacity="1.000000" stroke="none" 
	d="
M114.872139,60.124519 
	C117.025787,60.124519 119.179436,60.124519 121.999260,60.124519 
	C123.778435,100.222084 125.555809,140.279053 127.362068,180.986954 
	C121.146454,180.986954 115.557182,180.986954 109.567307,180.986023 
	C109.166702,180.985092 109.101128,180.820526 109.089676,180.375183 
	C109.729408,162.957977 110.380600,145.986115 111.063362,128.557602 
	C111.336098,122.728233 111.577255,117.355515 111.893791,111.562241 
	C112.936829,94.135956 113.904488,77.130241 114.872139,60.124519 
M118.208755,132.500519 
	C118.208755,125.982216 118.208755,119.463921 118.208755,112.202690 
	C114.034119,115.431824 114.036766,160.147461 118.208504,163.342102 
	C118.208504,152.898346 118.208504,143.199310 118.208755,132.500519 
M115.045830,168.707703 
	C115.256981,171.824677 115.468140,174.941650 115.679291,178.058624 
	C116.491798,178.013214 117.304314,177.967804 118.116829,177.922409 
	C118.116829,174.585800 118.137703,171.248322 117.995712,167.917770 
	C117.992195,167.835022 116.186905,167.829071 115.045830,168.707703 
z"/>
<path fill="#41363F" opacity="1.000000" stroke="none" 
	d="
M106.991753,82.448959 
	C107.261086,75.010223 107.602005,68.031746 107.933006,60.598740 
	C109.026337,60.092037 110.129578,60.039871 111.352905,60.367275 
	C111.003258,72.842278 110.533524,84.937706 109.950317,97.458908 
	C109.754578,100.230850 109.672318,102.577019 109.442406,105.232300 
	C109.293610,106.683945 109.292473,107.826462 109.189728,109.394669 
	C109.098373,111.569061 109.108643,113.317764 109.044403,115.515976 
	C108.871490,118.111801 108.823730,120.261864 108.665611,122.403778 
	C108.084686,130.273148 107.467133,138.139816 106.523026,146.000488 
	C105.501976,145.999634 104.821259,146.005783 104.140549,146.011932 
	C104.925728,129.288940 105.713593,112.566063 106.494286,95.842865 
	C106.695526,91.532188 106.874260,87.220467 106.991753,82.448959 
z"/>
<path fill="#EED894" opacity="1.000000" stroke="none" 
	d="
M110.063789,97.033134 
	C110.533524,84.937706 111.003258,72.842278 111.667023,60.371120 
	C112.619240,59.996605 113.377434,59.997814 114.503883,60.061775 
	C113.904488,77.130241 112.936829,94.135956 111.674973,111.358658 
	C110.684303,110.706757 109.987823,109.837868 109.291344,108.968979 
	C109.292473,107.826462 109.293610,106.683945 109.801819,105.053009 
	C110.227188,102.054100 110.145485,99.543617 110.063789,97.033134 
z"/>
<path fill="#362E3F" opacity="1.000000" stroke="none" 
	d="
M108.994263,183.563644 
	C105.963211,183.967453 102.936295,184.020782 99.356567,183.597229 
	C97.123573,182.746933 95.445923,182.063965 93.762772,182.050140 
	C82.509575,181.957764 71.255211,182.008026 60.001221,182.011993 
	C60.001221,182.011993 59.985310,181.632690 59.977097,181.443054 
	C72.154869,181.172043 84.341003,181.106735 96.526680,180.992966 
	C98.483627,180.974686 100.438568,180.740005 103.003998,180.323669 
	C104.415062,180.346832 105.216568,180.651703 106.404221,180.996826 
	C107.560623,180.964905 108.330872,180.892715 109.101128,180.820526 
	C109.101128,180.820526 109.166702,180.985092 109.105553,181.048279 
	C109.029060,181.812027 109.013725,182.512589 108.994263,183.563644 
z"/>
<path fill="#3C333E" opacity="1.000000" stroke="none" 
	d="
M134.315338,181.373505 
	C148.019241,181.052811 162.028854,181.013458 176.494537,181.068115 
	C176.529831,181.406158 176.108368,181.864426 175.688309,181.863129 
	C161.999146,181.820999 148.310089,181.734634 134.315338,181.373505 
z"/>
<path fill="#202240" opacity="1.000000" stroke="none" 
	d="
M169.973785,194.299911 
	C168.919510,194.699463 167.863510,194.766495 166.414368,194.413147 
	C166.013321,193.319794 166.005386,192.646805 165.997452,191.973831 
	C167.069168,191.916092 168.140900,191.858368 169.607941,191.884705 
	C169.992859,192.634964 169.982468,193.301178 169.973785,194.299911 
z"/>
<path fill="#202240" opacity="1.000000" stroke="none" 
	d="
M172.214508,192.246857 
	C173.388535,191.908707 174.786179,191.850296 176.595764,191.879181 
	C175.484512,192.153168 173.961304,192.339874 172.214508,192.246857 
z"/>
<path fill="#5D5A6C" opacity="1.000000" stroke="none" 
	d="
M103.103348,51.552582 
	C102.791153,51.943134 102.494354,52.146091 101.869507,52.662437 
	C101.541466,52.975830 101.098358,53.020161 101.098358,53.020161 
	C101.545639,52.352905 101.992912,51.685650 102.792267,51.003899 
	C103.144341,50.989403 103.118744,51.364983 103.103348,51.552582 
z"/>
<path fill="#E4D49A" opacity="1.000000" stroke="none" 
	d="
M101.057281,53.339558 
	C101.098358,53.020161 101.541466,52.975830 101.753601,52.905926 
	C101.793976,53.546917 101.622215,54.257816 101.157867,54.951771 
	C100.915588,54.509537 100.965897,54.084244 101.057281,53.339558 
z"/>
<path fill="#7F7F9D" opacity="1.000000" stroke="none" 
	d="
M125.984512,56.615620 
	C126.069206,56.384148 126.283150,56.305099 126.820633,56.337585 
	C126.800705,56.555428 126.457230,56.661739 125.984512,56.615620 
z"/>
<path fill="#F2F3F6" opacity="1.000000" stroke="none" 
	d="
M117.585007,25.273365 
	C119.332153,26.906208 120.735260,28.599068 122.400993,30.507587 
	C123.792305,34.538979 124.920998,38.354706 126.085754,42.589691 
	C125.719666,43.878654 125.277367,44.732323 124.922295,45.620846 
	C123.349609,49.556351 120.401184,49.932587 117.613838,46.538013 
	C112.765266,40.633202 112.633186,33.121719 117.585007,25.273365 
z"/>
<path fill="#D9C399" opacity="1.000000" stroke="none" 
	d="
M108.511711,46.542038 
	C108.298370,43.229801 108.068413,40.000183 107.847046,36.387329 
	C108.641518,35.499397 109.427406,34.994698 110.341064,34.407940 
	C111.067734,38.788380 111.743851,42.864079 112.562263,47.797554 
	C111.927933,47.932896 110.684341,48.198235 109.212990,47.972839 
	C108.778748,47.232327 108.572266,46.982544 108.365784,46.732765 
	C108.365784,46.732761 108.495094,46.624660 108.511711,46.542038 
z"/>
<path fill="#FFFFFE" opacity="1.000000" stroke="none" 
	d="
M128.051178,45.492081 
	C128.407562,43.369232 128.751709,41.598991 129.146301,39.421417 
	C133.588150,41.381737 129.011581,44.641758 130.030060,47.765636 
	C127.495575,49.002365 127.059738,48.026566 128.051178,45.492081 
z"/>
<path fill="#5D5A6C" opacity="1.000000" stroke="none" 
	d="
M110.782333,51.467400 
	C109.936546,51.752430 108.853432,51.828568 107.374130,51.798889 
	C108.166969,51.548218 109.355988,51.403366 110.782333,51.467400 
z"/>
<path fill="#5D5A6C" opacity="1.000000" stroke="none" 
	d="
M130.870422,51.526146 
	C130.567917,51.787422 130.105591,51.857868 129.307266,51.813705 
	C129.551056,51.577831 130.130829,51.456573 130.870422,51.526146 
z"/>
<path fill="#3C3538" opacity="1.000000" stroke="none" 
	d="
M108.327866,46.991879 
	C108.572266,46.982544 108.778748,47.232327 108.978516,47.740021 
	C108.744514,47.748955 108.517235,47.499973 108.327866,46.991879 
z"/>
<path fill="#392D37" opacity="1.000000" stroke="none" 
	d="
M106.018066,180.956573 
	C105.216568,180.651703 104.415062,180.346832 103.291107,180.015305 
	C102.993721,177.964813 103.018791,175.940964 103.360016,173.747894 
	C103.931816,174.729675 104.187462,175.880707 104.443115,177.031754 
	C104.863701,176.930084 105.284286,176.828430 105.704872,176.726761 
	C104.929459,173.818298 104.154045,170.909851 103.378632,168.001389 
	C103.596779,160.981216 103.814919,153.961044 104.086807,146.476410 
	C104.821259,146.005783 105.501976,145.999634 106.581818,146.459564 
	C106.659988,158.269287 106.339027,169.612946 106.018066,180.956573 
z"/>
<path fill="#362E3F" opacity="1.000000" stroke="none" 
	d="
M103.291962,168.416626 
	C104.154045,170.909851 104.929459,173.818298 105.704872,176.726761 
	C105.284286,176.828430 104.863701,176.930084 104.443115,177.031754 
	C104.187462,175.880707 103.931816,174.729675 103.452583,173.323578 
	C103.221107,171.656311 103.213203,170.244095 103.291962,168.416626 
z"/>
<path fill="#2A2A4A" opacity="1.000000" stroke="none" 
	d="
M59.998909,182.330292 
	C71.255211,182.008026 82.509575,181.957764 93.762772,182.050140 
	C95.445923,182.063965 97.123573,182.746933 98.911133,183.507324 
	C86.322426,183.953888 73.626373,184.013458 60.467216,183.997604 
	C60.001610,183.497650 59.999104,183.073105 59.998909,182.330292 
z"/>
<path fill="#2F224D" opacity="1.000000" stroke="none" 
	d="
M140.031113,214.195770 
	C140.468018,214.162704 140.904922,214.129654 141.661682,214.178452 
	C141.989960,214.952408 141.998383,215.644531 142.006714,216.682877 
	C141.244095,217.093994 140.481537,217.158875 139.438126,216.868484 
	C139.448547,215.740738 139.739838,214.968246 140.031113,214.195770 
z"/>
<path fill="#2F224D" opacity="1.000000" stroke="none" 
	d="
M113.990707,214.231171 
	C121.341026,214.186081 128.691345,214.140991 136.517014,214.507233 
	C136.998398,215.625961 137.004440,216.333389 137.010498,217.040802 
	C123.649963,217.107346 110.289436,217.173874 96.460541,217.210938 
	C95.846016,216.827652 95.699883,216.473831 95.296295,215.970459 
	C95.037758,215.468277 95.036682,215.115631 95.028580,214.498444 
	C95.468491,214.190292 95.915428,214.146667 97.019402,214.417114 
	C103.114525,214.564514 108.552612,214.397842 113.990707,214.231171 
z"/>
<path fill="#443E58" opacity="1.000000" stroke="none" 
	d="
M137.327209,217.151535 
	C137.004440,216.333389 136.998398,215.625961 136.980377,214.564972 
	C137.736481,214.153168 138.504593,214.094955 139.651901,214.116257 
	C139.739838,214.968246 139.448547,215.740738 139.058075,216.811066 
	C138.520554,217.160034 138.082230,217.211151 137.327209,217.151535 
z"/>
<path fill="#302E4F" opacity="1.000000" stroke="none" 
	d="
M152.021240,194.659729 
	C148.309555,194.724747 144.597855,194.789764 140.430573,194.422852 
	C139.983429,193.320938 139.991898,192.650940 140.000366,191.980942 
	C143.699524,191.905518 147.398682,191.830093 151.543365,192.199707 
	C151.999664,193.316406 152.010452,193.988068 152.021240,194.659729 
z"/>
<path fill="#202240" opacity="1.000000" stroke="none" 
	d="
M127.971642,194.664795 
	C124.493561,194.715454 121.015488,194.766129 117.214310,194.296631 
	C116.927330,193.177795 116.963455,192.579147 116.999573,191.980499 
	C120.366379,191.919510 123.733185,191.858536 127.555405,192.221741 
	C127.997757,193.318863 127.984703,193.991837 127.971642,194.664795 
z"/>
<path fill="#222541" opacity="1.000000" stroke="none" 
	d="
M100.975815,194.670166 
	C98.617027,194.716660 96.258240,194.763153 93.405853,194.461700 
	C91.907372,194.094131 90.902489,194.074478 89.897614,194.054825 
	C90.533806,193.288071 91.116692,191.922455 91.815605,191.860260 
	C94.557823,191.616135 97.336609,191.782959 100.553459,192.227524 
	C100.995338,193.328644 100.985573,193.999405 100.975815,194.670166 
z"/>
<path fill="#202240" opacity="1.000000" stroke="none" 
	d="
M152.467743,194.738708 
	C152.010452,193.988068 151.999664,193.316406 151.993042,192.308853 
	C155.034119,191.914230 158.071045,191.855515 161.557877,192.218857 
	C161.995529,193.307861 161.983276,193.974792 161.971039,194.641754 
	C158.952087,194.700394 155.933167,194.759048 152.467743,194.738708 
z"/>
<path fill="#363A54" opacity="1.000000" stroke="none" 
	d="
M77.245529,194.456024 
	C77.857941,191.071106 81.167526,190.615417 85.324280,194.359909 
	C82.730217,194.475250 80.136147,194.590591 77.245529,194.456024 
z"/>
<path fill="#222541" opacity="1.000000" stroke="none" 
	d="
M110.975243,194.665222 
	C108.615654,194.719101 106.256065,194.772995 103.455788,194.413452 
	C103.010674,193.329239 103.006248,192.658493 103.001823,191.987732 
	C105.380272,191.907837 107.758720,191.827957 110.574615,192.191116 
	C110.999794,193.311172 110.987518,193.988205 110.975243,194.665222 
z"/>
<path fill="#202240" opacity="1.000000" stroke="none" 
	d="
M139.578491,191.892517 
	C139.991898,192.650940 139.983429,193.320938 139.976959,194.326050 
	C138.275284,194.713638 136.571609,194.766129 134.447617,194.404755 
	C134.018097,193.320831 134.008881,192.650803 133.999664,191.980774 
	C135.718643,191.921875 137.437637,191.862976 139.578491,191.892517 
z"/>
<path fill="#302E4F" opacity="1.000000" stroke="none" 
	d="
M133.581268,191.871796 
	C134.008881,192.650803 134.018097,193.320831 134.028122,194.326019 
	C132.293152,194.726410 130.557358,194.791672 128.396606,194.760864 
	C127.984703,193.991837 127.997757,193.318863 128.006744,192.309357 
	C129.722748,191.902802 131.442810,191.832825 133.581268,191.871796 
z"/>
<path fill="#443E58" opacity="1.000000" stroke="none" 
	d="
M113.531769,214.139282 
	C108.552612,214.397842 103.114525,214.564514 97.351555,214.481262 
	C102.375397,214.170029 107.724121,214.108704 113.531769,214.139282 
z"/>
<path fill="#302E4F" opacity="1.000000" stroke="none" 
	d="
M111.330666,194.759384 
	C110.987518,193.988205 110.999794,193.311172 111.009537,192.295578 
	C112.725945,191.892746 114.444878,191.828491 116.581696,191.872360 
	C116.963455,192.579147 116.927330,193.177795 116.805008,194.218262 
	C115.041229,194.724579 113.363663,194.789062 111.330666,194.759384 
z"/>
<path fill="#302E4F" opacity="1.000000" stroke="none" 
	d="
M162.366882,194.753036 
	C161.983276,193.974792 161.995529,193.307861 162.005249,192.307251 
	C163.073349,191.903900 164.143982,191.834213 165.606033,191.869171 
	C166.005386,192.646805 166.013321,193.319794 166.024963,194.329193 
	C164.940033,194.731857 163.851364,194.798096 162.366882,194.753036 
z"/>
<path fill="#302E4F" opacity="1.000000" stroke="none" 
	d="
M102.672318,191.894684 
	C103.006248,192.658493 103.010674,193.329239 103.019745,194.334839 
	C102.566208,194.733932 102.108017,194.798203 101.312820,194.766312 
	C100.985573,193.999405 100.995338,193.328644 101.001747,192.322021 
	C101.446526,191.924652 101.894661,191.863144 102.672318,191.894684 
z"/>
<path fill="#302E4F" opacity="1.000000" stroke="none" 
	d="
M90.094696,194.342407 
	C90.902489,194.074478 91.907372,194.094131 92.966667,194.403870 
	C92.111320,194.672638 91.201553,194.651306 90.094696,194.342407 
z"/>
<path fill="#F0D99B" opacity="1.000000" stroke="none" 
	d="
M106.404221,180.996841 
	C106.339027,169.612946 106.659988,158.269287 106.922157,146.466568 
	C107.467133,138.139816 108.084686,130.273148 108.665611,122.403778 
	C108.823730,120.261864 108.871490,118.111801 109.319496,115.814941 
	C110.123322,120.114357 110.577553,124.564308 111.031784,129.014252 
	C110.380600,145.986115 109.729408,162.957977 109.089676,180.375183 
	C108.330872,180.892715 107.560623,180.964905 106.404221,180.996841 
z"/>
<path fill="#323150" opacity="1.000000" stroke="none" 
	d="
M118.208633,133.000397 
	C118.208504,143.199310 118.208504,152.898346 118.208504,163.342102 
	C114.036766,160.147461 114.034119,115.431824 118.208755,112.202690 
	C118.208755,119.463921 118.208755,125.982216 118.208633,133.000397 
z"/>
<path fill="#E2C782" opacity="1.000000" stroke="none" 
	d="
M111.063362,128.557602 
	C110.577553,124.564308 110.123322,120.114357 109.393997,115.365440 
	C109.108643,113.317764 109.098373,111.569061 109.189728,109.394669 
	C109.987823,109.837868 110.684303,110.706757 111.599594,111.779221 
	C111.577255,117.355515 111.336098,122.728233 111.063362,128.557602 
z"/>
<path fill="#393751" opacity="1.000000" stroke="none" 
	d="
M115.133881,168.247498 
	C116.186905,167.829071 117.992195,167.835022 117.995712,167.917770 
	C118.137703,171.248322 118.116829,174.585800 118.116829,177.922409 
	C117.304314,177.967804 116.491798,178.013214 115.679291,178.058624 
	C115.468140,174.941650 115.256981,171.824677 115.133881,168.247498 
z"/>
<path fill="#F6DEA9" opacity="1.000000" stroke="none" 
	d="
M109.950317,97.458908 
	C110.145485,99.543617 110.227188,102.054100 109.949478,104.743881 
	C109.672318,102.577019 109.754578,100.230850 109.950317,97.458908 
z"/>
</svg>